<svg xmlns="http://www.w3.org/2000/svg" viewBox="0 0 153.34 57.57">
    <path
        d="M65.47 36.7h.04l-.04.04c-.08.05-.06-.02-.07-.07.07.02.04 0 .07.03zM73.21 34.82c-.01.59-.18 1.2-.35 1.74l-.03.53c-.09.33-.19.76-.28.99v.32c-.04.18-.07.41-.14.64-.19.63-.36 1.15-.32 1.84.11.07.2.18.35.21.13.03.25-.05.39.04.03.05.03.09.03.18-.09.11-.18.22-.25.35-.29-.09-.46-.09-.81-.07-.11-.18-.31-.37-.35-.6-.02-.13.07-.51.07-.64.03-.66.14-1.67.25-2.16.04-.26.07-.52.11-.78.11-.36.56-1.65.39-1.91-.08-.21-.23-.17-.25-.46.4-.11.78-.24 1.19-.22zM21.14 26.8c.38-.8 1.47-3.17 2.23-4.84.33-.76.67-1.5 1-2.26.36-.85.45-1.05.67-1.7.78.06 1.07.07 1.56.07.45 0 .74-.02 1.74-.07v.11c-.42.09-.62.33-.72.87-.13.73-.16 1.32-.2 2.83-.02.87-.02 1.61-.02 2.23 0 1.56.04 3.02.07 3.84.02.42.07.82.15 1.21.11.56.31.78.72.87v.11c-.91-.05-1.27-.05-2.08-.05-.78 0-1.11 0-1.97.05v-.11c.45-.11.65-.36.74-.96.14-1.01.18-1.78.2-4.64v-2.21l-.03-1.85v-.63c-.43.94-.49 1.1-1.21 2.72-.33.78-.65 1.48-.94 2.14l-.89 1.97c-.83 1.9-1.1 2.5-1.34 3.13-.04.09-.09.25-.16.43-.29-.04-.4-.05-.56-.05-.16 0-.22.02-.67.05-.31-.76-.36-.92-.94-2.19l-1.18-2.57-1.01-2.16c-.67-1.41-1.07-2.34-1.47-3.33l-.02 1.03V23.81c0 2.05.04 2.92.14 4.62.02.27.04.51.07.71.07.51.27.73.74.82v.11c-.67-.05-.92-.05-1.56-.05-.65 0-.91 0-1.54.05v-.11c.56-.16.71-.56.96-2.64.09-.63.15-1.34.22-2.1.02-.27.07-1.29.18-3.01.04-.78.07-1.43.07-1.96 0-1.54-.16-1.96-.85-2.14V18c.85.06 1.18.07 1.77.07.6 0 .87-.02 1.59-.07.18.58.24.76.49 1.38.72 1.79 1.47 3.48 2.19 4.96l1.23 2.5.29.63.34-.67zm11.23-6.72c.34-.74 1-1.05 2.3-1.12.11-.02.22-.02.33-.02 2.77 0 4.11 1.72 4.11 5.29 0 1.48-.22 2.72-.62 3.59-.33.72-1.12 1.07-2.5 1.07-2.66 0-4.33-2.1-4.33-5.45.01-1.27.24-2.38.71-3.36m4.04-2.24c-.18 0-.34 0-.53.02-.45.04-.87.09-1.27.2-.74.2-1.7.58-2.97 1.14-.85.4-1.2.67-1.54 1.32-.58 1.03-.91 2.37-.91 3.71 0 1.76.6 3.53 1.5 4.53.83.91 2.28 1.43 3.84 1.43 1.43 0 2.99-.49 4.29-1.38 1.79-1.25 2.68-3.04 2.68-5.52.02-3.57-1.75-5.45-5.09-5.45m7.61 2.82c.8 1.03 1.12 1.43 1.88 2.32l1.74 2.06 2.16 2.52 1.83 2.08.36.42c.33-.04.45-.04.69-.04.24 0 .36 0 .67.04v-.47c.04-2.75.22-6.52.43-8.97.14-1.85.34-2.37.98-2.52V18c-.56.05-.76.07-1.36.07-.62 0-1.1-.02-1.9-.07v.11c.43.15.69.49.82 1.18.07.42.13.87.16 1.39.09 1.49.16 3.06.16 4.33v2.42c-.22-.24-.38-.42-.49-.53-.31-.34-.91-1.05-1.81-2.08-.98-1.12-1.63-1.9-1.99-2.34-.47-.58-1.07-1.34-1.79-2.28-.92-1.2-1.09-1.45-1.54-2.25-.63.09-.83.11-1.65.11-.92 0-1.2-.02-1.94-.07v.11c1.16.31 1.76 1.32 1.76 2.99 0 .29 0 .65-.02 1.09-.05 1.65-.16 3.88-.27 4.96-.24 2.34-.34 2.63-1.07 2.81v.11c.78-.05 1.14-.05 1.74-.05.6 0 .85 0 1.52.05v-.11c-.42-.11-.58-.33-.67-.89-.16-.83-.24-1.72-.31-3.48s-.09-3.03-.09-4.22v-.7zm18.24.93c.04-1.27.05-1.59.13-2.61.43-.02.6-.02.85-.02 2.01 0 2.7.38 2.7 1.49 0 .13 0 .27-.02.47h.42c.04-1.21.13-2.01.4-3.13-.74.15-.91.15-2.19.2-1.34.07-2.45.09-3.61.09-.9 0-1.92-.02-3.08-.05-1.1-.02-1.23-.04-1.85-.24v.11c0 .8-.16 1.88-.43 3.02l.4.07c.16-.6.25-.8.47-1.07.45-.58 1.65-.96 2.95-.96.13 0 .31.02.54.02.07 1 .09 2.32.09 4.29 0 2.16-.05 4.2-.16 5.34-.07.83-.29 1.21-.8 1.34v.11c.76-.05 1.2-.05 2.28-.05.91 0 1.09 0 1.76.05v-.11c-.33-.11-.45-.2-.56-.45-.25-.53-.34-1.76-.34-4.44 0-1.06.01-2.2.05-3.47m9.83 1.75c-.4 0-.65-.02-1.23-.07v-.49c.02-1.97.05-3.01.14-3.97.63-.07.91-.09 1.54-.09 1.23 0 2.14.16 2.81.54.51.27.74.67.78 1.32h.34c-.02-.2-.02-.34-.02-.43 0-.83.09-1.41.31-2.3-.85.11-1.16.15-2.17.16l-2.01.04c-.9 0-1.59.02-2.05.02-.61 0-1.18-.02-2.34-.05l-.44-.02v.11c.42.09.6.31.72.87.07.4.11.8.15 1.21.04.85.07 2.21.07 3.84 0 .67-.02 1.41-.02 2.23-.02 1.47-.07 2.1-.2 2.83-.11.54-.31.78-.72.87v.11c.87-.04 1.56-.05 2.86-.05 1.2 0 2.66.02 3.93.04.94.02 1.16.02 1.83.15.16-.78.44-1.59.98-2.75l-.29-.13c-.27.45-.36.6-.56.8-.73.76-2.16 1.14-4.18 1.14-.56 0-.8-.02-1.41-.09l-.02-.4c-.04-.76-.05-1.49-.05-2.14l.04-2.12v-.47c.51-.02.69-.02 1-.02 2.19 0 2.88.33 2.99 1.45h.33c-.03-.58-.03-.8-.03-1.18 0-.78.03-1.34.14-2.23h-.33c-.11.98-.79 1.27-2.89 1.27m15.58-1.99v-.34c0-.91.22-1.83.67-2.86-.09.02-.16.02-.22.02-.15 0-.4-.04-.73-.09-.87-.16-1.5-.22-2.17-.22-.62 0-1.21.05-1.79.16-.92.18-1.59.45-2.5 1.01-.96.6-1.58 1.14-1.98 1.81-.51.8-.83 2.14-.83 3.37 0 3.66 2.46 5.98 6.32 5.98.8 0 1.1-.04 1.94-.22.42-.65.6-.91 1.01-1.38.42-.49.63-.69 1.25-1.2-.15-.16-.18-.2-.29-.38-.92.87-1.92 1.27-3.22 1.27-3.1 0-4.82-1.79-4.82-5.02 0-1.41.31-2.57.9-3.39.47-.62 1.2-.89 2.48-.89 1.45 0 2.59.34 3.15.96.31.33.4.65.42 1.39h.41v.02zm6.03 2.68c-.31 0-.51 0-.96-.05v-.87c0-2.16.04-3.42.09-4.37.69-.11.91-.13 1.23-.13 1.76 0 2.77 1.07 2.77 2.93 0 .89-.24 1.52-.76 1.96-.45.39-1.16.53-2.37.53m2.36.18c2.08-.71 3.04-1.81 3.04-3.46 0-1.99-1.27-2.9-4.06-2.9-.38 0-.74.02-1.1.04l-1.2.09c-.65.05-1.36.09-1.81.09s-.69-.02-1.27-.07v.11c.4.09.6.33.71.87.07.4.13.8.15 1.21.04.85.07 2.28.07 3.84 0 .65-.02 1.39-.02 2.23-.04 1.5-.07 2.12-.2 2.83-.11.54-.31.78-.71.87v.11c.62-.05.78-.05 1.79-.05 1.3 0 1.47 0 2.23.05v-.11c-.43-.13-.64-.36-.73-.89-.13-.67-.2-2.28-.2-3.98v-.42h.32c.29 0 .42.02.62.11.45.2.96.82 1.99 2.37l.87 1.32.85 1.32.2.29c.49-.04.8-.05 1.54-.05.51 0 .85.02 1.65.04v-.11c-.27-.09-.38-.14-.62-.36-.67-.63-1.54-1.7-2.77-3.46l-1.09-1.54-.25-.39zm8.11-6.14c-.56 0-.9-.02-2.05-.07h-.04v.11c.42.09.6.33.73.87.07.4.13.8.14 1.21.04.85.07 2.16.07 3.84 0 .69-.02 1.43-.02 2.23-.04 1.49-.07 2.12-.2 2.83-.11.54-.31.78-.73.87v.11l.63-.02c.53-.04.96-.04 1.29-.04.29 0 .71 0 1.27.02l.85.04v-.11c-.4-.09-.6-.33-.71-.87-.07-.38-.13-.8-.14-1.21-.05-.87-.07-2.16-.07-3.84 0-.72 0-1.47.02-2.23.02-1.5.07-2.14.2-2.83.11-.54.31-.78.71-.87V18c-.97.06-1.35.07-1.95.07m11.37 2.97c-.04-.54-.06-.76-.06-1.12 0-.73.06-1.21.22-1.83-.16.02-.29.04-.36.04-.15 0-.35-.02-.6-.05-1.05-.16-1.58-.22-2.25-.22-2.93 0-4.75 1.25-4.75 3.28 0 1.72.98 2.68 3.91 3.82 1.25.51 1.58.67 1.96 1.05.36.36.56.89.56 1.5 0 1.3-.72 1.96-2.17 1.96-.98 0-2.03-.38-2.77-1.01-.65-.53-.92-1.07-1.07-2.06l-.36.02c.04.53.05.71.05 1.16 0 .92-.04 1.38-.18 2.1l.45.11c1.45.31 2.34.42 3.33.42 1.56 0 2.64-.34 3.59-1.2.89-.78 1.27-1.58 1.27-2.61 0-1.16-.65-2.08-1.83-2.59l-1.87-.8c-2.05-.89-2.72-1.54-2.72-2.68 0-1.14.67-1.68 2.01-1.68 1.81 0 3.12.96 3.26 2.45l.38-.06zm8.35.55c.04-1.27.05-1.59.13-2.61.44-.02.6-.02.85-.02 2.01 0 2.7.38 2.7 1.49 0 .13 0 .27-.02.47h.42c.04-1.21.13-2.01.4-3.13-.74.15-.91.15-2.19.2-1.34.07-2.44.09-3.6.09-.9 0-1.92-.02-3.08-.05-1.1-.02-1.23-.04-1.85-.24v.11c0 .8-.16 1.88-.43 3.02l.4.07c.16-.6.25-.8.47-1.07.45-.58 1.65-.96 2.95-.96.13 0 .31.02.54.02.07 1 .09 2.32.09 4.29 0 2.16-.06 4.2-.16 5.34-.07.83-.29 1.21-.8 1.34v.11c.76-.05 1.2-.05 2.28-.05.91 0 1.09 0 1.76.05v-.11c-.33-.11-.45-.2-.56-.45-.25-.53-.35-1.76-.35-4.44 0-1.06.02-2.2.05-3.47m7.59-1.51c.34-.74 1-1.05 2.3-1.12.11-.02.22-.02.33-.02 2.77 0 4.11 1.72 4.11 5.29 0 1.48-.22 2.72-.62 3.59-.33.72-1.12 1.07-2.5 1.07-2.66 0-4.33-2.1-4.33-5.45.01-1.27.24-2.38.71-3.36m4.04-2.24c-.18 0-.34 0-.52.02-.45.04-.87.09-1.27.2-.74.2-1.7.58-2.97 1.14-.85.4-1.2.67-1.54 1.32-.58 1.03-.91 2.37-.91 3.71 0 1.76.6 3.53 1.5 4.53.83.91 2.28 1.43 3.84 1.43 1.43 0 2.99-.49 4.29-1.38 1.79-1.25 2.68-3.04 2.68-5.52.01-3.57-1.77-5.45-5.1-5.45M94.52 35.49c-.19-.47-1.18-.62-1.91-.6-.29.22-.71.2-.92.5-.49.7-.43 1.92.18 2.48-.03.31-.28.21-.43.39-.21.27-.44.54-.64.81-.2.28-.27.54-.53.74-.09 1.11.43 1.28.99 1.77.03.02.24.1.35.07v-.07h.07c.14.04.18.19.39.14.18-.05.4-.22.6-.32.13-.06.25-.01.32-.04.27-.11.67-.57.78-.85h.04v-.07h-.07c.07-.04.04-.01.14 0 .12-.44.49-.95.32-1.52-.13-.43-.66-.62-.78-1.03h-.04c-.02-.07.01-.05.04-.07.02-.29.5-.81.67-.99.03-.04.12-.02.14-.07.07-.13-.01-.25.07-.35.16-.2.49-.56.22-.92zm-2.13 2.63h.14c.04.29.17.18.18.43.08-.01.16-.02.25-.04.16.3.59.37.67.74.03.14-.06.44-.07.5V40c-.1.3-.41.68-.67.81h-.14c-.17.09-.4.37-.71.32-.23-.04-.54-.22-.74-.32-.06-.2-.19-.38-.25-.57-.31-1.09.95-1.53 1.34-2.12zm1.21-1.39c-.06.16-.18.21-.28.32-.36.41-.24.38-.88.42-.12-.12-.29-.18-.39-.32-.04-.08.03-.07 0-.18-.04-.13-.19-.33-.21-.5-.06-.45.42-.78.57-1.1.09 0 .13 0 .18-.04.2-.01.42-.02.53.07.47.04.68.98.48 1.33z" />
    <path
        d="M65.49 35.64c-.18-.18-.38-.43-.64-.53-.21-.08-.49.03-.74-.04-.79-.2-1.8-.05-2.44.04.05.28.3.36.39.64.1.33-.01.7-.07.96v.43c-.17.72-.27 1.42-.46 2.09v.32c-.09.35-.19.81-.32 1.1v.18c-.04.07-.8.58-.92.67.15.27 1.34.03 1.45-.18.15 0 .24.01.32.07.03.02.01 0 0 .04.09.2.8-.01 1.06-.11.26-.09.65-.12.85-.21.37-.18 1.12-.93 1.35-1.28.26-.4.28-.89.46-1.38.09-.26.11-.68.18-.96.22-.94.02-1.36-.47-1.85zm-.21 2.33c-.07.25-.19.59-.32.81-.08.14-.29.31-.35.46v.21c-.05.12-.21.19-.28.28-.06.08-.05.17-.11.25-.11.15-.31.23-.46.35-.1.08-.17.26-.28.32-.15.09-1.11.4-1.2.35-.09 0-.13 0-.18-.04-.14-.21-.06-.69 0-.92.01-.05.11-.16.14-.28.02-.28.05-.57.07-.85.18-.56.24-1.31.39-1.81v-.32c.14-.55.16-.96.46-1.35.92-.01 1.61.22 1.95.89.02.13.05.26.07.39.1.28.23.85.1 1.26zM84.55 36.84c-.3-.95-.31-1.14-1.1-1.63-.06-.04-.14-.15-.21-.18-.24-.09-.46-.05-.67 0-.24.06-.43 0-.64.07-.62.21-.91.83-1.13 1.45-.1.29-.25.97-.04 1.28.07.71 1.79 1.33 2.48.74.13.03.1.04.18.11-.02.31-.22.4-.32.64-.12.29-.13.56-.28.81-.07.12-.24.23-.32.35-.07.1-.11.33-.21.39-.56.33-1.23-.09-1.56-.43-.27.01-.4.22-.46.43-.03.04-.01.01-.04.07.1.07.24.2.35.25.04-.01.07-.02.11-.04.05.03.24.13.28.18-.02-.01-.05-.02-.07-.04.07.13.29.11.39.18.1-.02.06.02.07-.07.07.01.14.02.21.04v.07c.23.08 1.07-.46 1.2-.57.05-.08.09-.17.14-.25.34-.25.62-.42.81-.81.03-.04 0-.03 0-.14h.14l.39-.5c.05-.12-.06-.25-.04-.32.03-.09.09-.06.14-.14-.08-.11.23-.98.18-1.24-.02-.19.08-.49.02-.7zm-.89.43c-.07.3-.21.59-.35.81l-.71.21c-.11-.01-.21-.02-.32-.04-.46.08-.82-.3-.92-.67-.07-.24 0-.53 0-.74 0-.06-.06-.39 0-.53l.14-.11v-.14c.18-.36.55-.42.88-.64.17 0 .31-.01.39.07.58.02.57.64.74 1.13.05.14.19.45.15.65zM77.57 41.3v-.11h-.21l-.11.11c.06.05.04.02.07.11h-.04c-.07-.08-.07-.09-.21-.11-.02.06-.03.09-.03.18-.11 0-.19-.02-.25-.04-.04.01-.06.08-.14.07-.15-.02-.15-.13-.35-.14v-.11c.13-.09.56-.25.64-.35.6-.85.64-2.26.92-3.44v-.42c.05-.22.1-.6.11-.81 0-.06-.11-.25-.14-.32-.23-.11-.6-.26-.74-.46.09-.05.12-.07.28-.07.19-.12 1.1-.28 1.42-.28.05.15.04.43.04.64-.06.1.01.15 0 .25-.06.39-.16.78-.25 1.2-.14.67-.68 2.08-.57 2.9.05.36.1.71.28.92.08.08.7.37.57.5-.05.04-.15.04-.25.04-.05-.08-.04-.06-.07-.07-.03.03-.05.06-.07.11-.12-.03-.24-.04-.28-.07a.138.138 0 0 1-.03-.04c.06-.05.04-.02.07-.11h-.14v.04l.07.07c-.09.02-.07.08-.11.04-.07-.1-.05-.16-.18-.21-.1-.07-.17-.03-.3-.02zM86.66 41.02c-.01.21-.16.5-.35.53-.03-.02-.1 0-.21-.04.01.08.03.04 0 .11l-.11-.07c-.03-.05-.03-.09-.04-.18.25-.32.3-.75.53-1.1.44-.67.76-1.43 1.17-2.16.17-.31.44-.68.6-.99.07-.13.04-.21.11-.32.12-.18.38-.31.42-.53-.66 0-1.33.02-1.95.14-.11.24-.25.42-.35.67-.18.02-.11.03-.25.04v-.28c.09-.11.37-.96.43-1.13.09-.28-.03-.54.32-.57.15.27.22.36.42.57.71 0 1.45-.01 1.98 0 .05.09.06.1.07.25-.07.08-.05.17-.11.28-.02.04-.12.08-.14.11-.06.08-.02.2-.07.28-.06.05-.12.09-.18.14-.11.2-.1.41-.21.6-.36.59-.67 1.11-1.03 1.7-.05.14-.1.28-.14.42-.06.05-.12.09-.18.14-.12.21-.09.43-.21.64-.15.25-.31.43-.42.74-.03.01-.06.01-.1.01zM69.67 40.81c-.24-.38.16-1.45.25-1.81.07-.29.01-.53.18-.71v-.25c-.34-.07-.73-.14-1.1-.18-.09.05-.23-.01-.35.04-.21.07-.48.18-.71.28-.62.28-1.38 1.4-1.13 2.41.06.25.29.45.35.71.08-.04.07-.03.11-.11.11.07.05.07.04.21.45.03.41-.15.85.11 0 0 .42-.15.46-.14.02.01.07.11.07.11.17.07.24-.2.5-.04.19-.01.12-.03.18-.07v-.04c.08.03.05.05.11.14.18.02.19.05.28-.07.16.03.18.08.28.14.05-.07.13-.1.21-.14-.08-.34-.47-.3-.58-.59zm-.25-2.41c-.01.16-.08.19-.11.28v.39c-.25 1.02-.3 1.79-1.35 2.02-.1-.11-.28-.19-.35-.32-.32-.58-.05-1.61.25-2.02l.39-.39c.14-.01.3-.04.39-.11.34 0 .58.03.78.15z" />
    <path
        d="M83.5 38.61v.14h-.11c-.02-.13-.05-.12-.07-.25.13.04.1.05.18.11zM83.61 39.39v.07h-.04v-.07h.04zM83.29 39.6l.07.07c-.02-.02-.05-.04-.07-.07zM83.08 39.99c-.05.04-.15.04-.25.04v-.07l.25.03zM82.93 40.24v.07c-.04.01-.07.02-.11.04-.04-.06-.07-.12-.11-.18.08.02.15.05.22.07zM71.32 40.49v.11c-.09-.05-.04.01-.07-.11h.07zM90.35 40.95v.07h-.03v-.07h.03zM68.87 41.09c-.06-.02-.04-.01-.07-.04.06.03.04.01.07.04zM66.82 41.34c.03.03.05.06.07.11h-.07v-.11zM76.24 41.37v.07h-.07v-.07h.07zM77.06 41.37h.07v.04c-.07-.02-.04-.01-.07-.04zM61.44 41.41c.04.01.07.02.11.04v.04h-.11v-.08zM68.49 41.44h.07v.04c-.07-.02-.04-.01-.07-.04zM67.14 41.48h.07v.04c-.06-.03-.03-.01-.07-.04zM72.03 41.62c.11.03.05-.02.11.07-.09-.03-.07-.01-.11-.07z" />
</svg>