<svg enable-background="new 0 0 456.6 494.7" viewBox="0 0 456.6 494.7" xmlns="http://www.w3.org/2000/svg" xmlns:xlink="http://www.w3.org/1999/xlink"><linearGradient id="a" gradientUnits="userSpaceOnUse" x1="35.557" x2="461.0639" y1="183.426" y2="330.8533"><stop offset="0" stop-color="#f9f4eb"/><stop offset=".0889" stop-color="#f8f2e7"/><stop offset=".1699" stop-color="#f6ecdd"/><stop offset=".2479" stop-color="#f3e3cd"/><stop offset=".3236" stop-color="#efd6b5"/><stop offset=".3376" stop-color="#edd3b0"/><stop offset=".4198" stop-color="#eccfa9"/><stop offset=".4801" stop-color="#ebcaa0"/><stop offset=".7029" stop-color="#e1bc8b"/><stop offset=".8098" stop-color="#dcb480"/><stop offset=".8437" stop-color="#ca9e70"/><stop offset=".8929" stop-color="#b98960"/><stop offset=".9442" stop-color="#af7d57"/><stop offset="1" stop-color="#ac7954"/></linearGradient><linearGradient id="b" gradientUnits="userSpaceOnUse" x1="-8.0354" x2="430.5085" y1="206.6448" y2="284.9258"><stop offset="0" stop-color="#e8c798"/><stop offset=".1386" stop-color="#e8c89b"/><stop offset=".2413" stop-color="#ebcda4"/><stop offset=".3158" stop-color="#edd3b0"/><stop offset=".3985" stop-color="#ecd0a9"/><stop offset=".4825" stop-color="#e9ca9d"/><stop offset=".7567" stop-color="#e7c89a"/><stop offset=".7693" stop-color="#c8a77f"/><stop offset=".7898" stop-color="#a07e5e"/><stop offset=".8108" stop-color="#816046"/><stop offset=".8322" stop-color="#6a4b35"/><stop offset=".8541" stop-color="#5c3d2b"/><stop offset=".8767" stop-color="#533624"/><stop offset=".9014" stop-color="#503322"/></linearGradient><linearGradient id="c" gradientUnits="userSpaceOnUse" x1="111.3558" x2="409.3732" y1="206.8396" y2="311.6709"><stop offset=".1197" stop-color="#f3dfbd"/><stop offset=".2571" stop-color="#f0dbb9"/><stop offset=".3824" stop-color="#e7cfac"/><stop offset=".5029" stop-color="#d9ba96"/><stop offset=".6199" stop-color="#c69f7a"/><stop offset=".6909" stop-color="#b98b67"/></linearGradient><linearGradient id="d" gradientUnits="userSpaceOnUse" x1="-7.2722" x2="431.2716" y1="205.2322" y2="283.5132"><stop offset="0" stop-color="#e8c798"/><stop offset=".1386" stop-color="#e8c89b"/><stop offset=".2413" stop-color="#ebcda4"/><stop offset=".3158" stop-color="#edd3b0"/><stop offset=".3985" stop-color="#ecd0a9"/><stop offset=".4825" stop-color="#e9ca9d"/><stop offset=".7143" stop-color="#e7c89a"/><stop offset=".7485" stop-color="#efd8b7"/><stop offset=".7844" stop-color="#f5e5cf"/><stop offset=".8213" stop-color="#faefe0"/><stop offset=".8596" stop-color="#fdf5ea"/><stop offset=".9014" stop-color="#fef7ee"/></linearGradient><linearGradient id="e" gradientUnits="userSpaceOnUse" x1="229.9764" x2="209.9776" y1="118.4817" y2="537.7627"><stop offset=".5807" stop-color="#fcfbe9" stop-opacity="0"/><stop offset=".6278" stop-color="#eee6d0" stop-opacity=".1806"/><stop offset=".7253" stop-color="#ccb592" stop-opacity=".5544"/><stop offset=".8415" stop-color="#a37b4c"/><stop offset=".843" stop-color="#9e764b"/><stop offset=".8578" stop-color="#6e543e"/><stop offset=".8731" stop-color="#4a3a31"/><stop offset=".8886" stop-color="#2f2624"/><stop offset=".9043" stop-color="#1c1718"/><stop offset=".9204" stop-color="#0f0c0d"/><stop offset=".9371" stop-color="#070506"/><stop offset=".9552" stop-color="#050304"/></linearGradient><linearGradient id="f" gradientUnits="userSpaceOnUse" x1="-8.0354" x2="430.5085" y1="206.6448" y2="284.9258"><stop offset="0" stop-color="#e8c798"/><stop offset=".1025" stop-color="#e8c89b"/><stop offset=".1785" stop-color="#ebcda4"/><stop offset=".2336" stop-color="#edd3b0"/><stop offset=".3571" stop-color="#ecd0a9"/><stop offset=".4825" stop-color="#e9ca9d"/><stop offset=".796" stop-color="#e7c89a"/><stop offset=".8884" stop-color="#967456"/><stop offset=".964" stop-color="#62432f"/><stop offset="1" stop-color="#503322"/></linearGradient><linearGradient id="g" gradientUnits="userSpaceOnUse" x1="392.616" x2="25.1207" y1="181.8093" y2="331.512"><stop offset=".8033" stop-color="#fcfbe9" stop-opacity="0"/><stop offset=".8124" stop-color="#eee6d0" stop-opacity=".1806"/><stop offset=".8313" stop-color="#ccb592" stop-opacity=".5544"/><stop offset=".8538" stop-color="#a37b4c"/><stop offset=".8552" stop-color="#9e764b"/><stop offset=".8684" stop-color="#6e543e"/><stop offset=".882" stop-color="#4a3a31"/><stop offset=".8958" stop-color="#2f2624"/><stop offset=".9098" stop-color="#1c1718"/><stop offset=".9242" stop-color="#0f0c0d"/><stop offset=".939" stop-color="#070506"/><stop offset=".9552" stop-color="#050304"/></linearGradient><radialGradient id="h" cx="30.7999591" cy="146.5000498" fx="23.5845225" fy="166.477831" gradientUnits="userSpaceOnUse" r="32.8896207"><stop offset="0" stop-color="#fffefa"/><stop offset=".2484" stop-color="#fefdf8"/><stop offset=".4327" stop-color="#fefbf1"/><stop offset=".4522" stop-color="#fdfaf0"/><stop offset=".5126" stop-color="#f6efe2" stop-opacity=".8656"/><stop offset=".6196" stop-color="#e4d2be" stop-opacity=".6273"/><stop offset=".7605" stop-color="#c8a789" stop-opacity=".3137"/><stop offset=".9014" stop-color="#ac7954" stop-opacity="0"/></radialGradient><radialGradient id="i" cx="234.5903" cy="322.8481" fx="237.449" fy="343.873" gradientTransform="matrix(-.8158 .8158 -.8937 -.8937 599.003 165.6998)" gradientUnits="userSpaceOnUse" r="32.8549"><stop offset="0" stop-color="#fffefa"/><stop offset=".192" stop-color="#fefdf7"/><stop offset=".3528" stop-color="#fdfaf0"/><stop offset=".3928" stop-color="#fcf6e9"/><stop offset=".4512" stop-color="#f7ead6"/><stop offset=".5205" stop-color="#efd7b8"/><stop offset=".5438" stop-color="#ecd0ac"/><stop offset=".7972" stop-color="#714d38"/></radialGradient><radialGradient id="j" cx="-357.8369" cy="226.2444" fx="-352.8831" fy="247.1477" gradientTransform="matrix(-1.1203 0 0 -1.2159 -173.5847 310.3775)" gradientUnits="userSpaceOnUse" r="36.7659"><stop offset="0" stop-color="#fffefa"/><stop offset=".1319" stop-color="#fefdf7"/><stop offset=".2424" stop-color="#fdfaf0"/><stop offset=".303" stop-color="#fcf6e9"/><stop offset=".3915" stop-color="#f7ead6"/><stop offset=".4966" stop-color="#efd7b8"/><stop offset=".5319" stop-color="#ecd0ac"/><stop offset=".6768" stop-color="#835d48"/><stop offset=".9497" stop-color="#8c5c3d"/></radialGradient><radialGradient id="k" cx="-333.5293" cy="415.2615" fx="-340.7357" fy="440.5472" gradientTransform="matrix(-1.2082 -.2093 .2174 -1.2545 -158.298 521.4379)" gradientUnits="userSpaceOnUse" r="41.0564"><stop offset=".031" stop-color="#fffefa"/><stop offset=".095" stop-color="#fcf9f3"/><stop offset=".1884" stop-color="#f4eadf"/><stop offset=".3" stop-color="#e7d4bf"/><stop offset=".4246" stop-color="#d6b594"/><stop offset=".4395" stop-color="#d4b18e"/><stop offset=".5697" stop-color="#d7b694"/><stop offset=".7467" stop-color="#6d422f"/></radialGradient><radialGradient id="l" cx="-277.0912" cy="427.1031" fx="-287.0761" fy="451.4519" gradientTransform="matrix(-1.1863 -.2055 .2055 -1.1863 6.4434 599.3594)" gradientUnits="userSpaceOnUse" r="41.0938"><stop offset=".0436" stop-color="#fdf6e0"/><stop offset=".1115" stop-color="#fbf1d9"/><stop offset=".2107" stop-color="#f4e3c5"/><stop offset=".3285" stop-color="#eacea5"/><stop offset=".3893" stop-color="#e4c092"/><stop offset=".6319" stop-color="#8c5c3d"/><stop offset=".6701" stop-color="#372623"/></radialGradient><path d="m416.4 119.7s-20.2 1.8-24 26.7c0 0 0 13 5.9 21.6l2.2 3.1s1 1.4-.6 5.1l-73.7 171.2-2.4 4.1s-2.6 4.1-9.6 1.4c0 0-6.1-2.4-4.7-13.4l20.2-146.6 13-87.7s.7-3.4 3.4-4.2c.7-.2 1.4-.5 2.1-1 4.3-2.6 16.9-11.8 17.5-27.7 0 0 3-16.9-11.6-27.5-10.4-7.6-24.4-8.5-35.4-1.9-6.4 3.8-12.3 10.4-13.7 22 0 0-3.1 13.2 4.5 24.4 0 0 5.3 6.3 6.7 7.3 0 0 1.6 1.4 1.2 3.1l-44.2 207.6s-3.1 12.6-13.4 12.8c0 0-7.1 1.4-8.5-10.6l-6.1-129.9-5.5-112.1s.6-5.5 4.7-7.9c0 0 15.5-11.8 10.8-30.7 0 0-4.7-29.3-37.9-23.4 0 0-24.6 7.3-17.5 40.7 0 0 2.4 9.4 11.4 14.9 0 0 5.5 2.4 5.5 9.6l-8.5 236.3s.8 13.8-12.2 14.7c0 0-7.7.8-12.4-23.2l-45.5-193.5s-2.5-11.2 3-16.1c0 0 17.6-22.9-2.4-44.4 0 0-16.7-16.3-38.7-1.2 0 0-15.7 9.8-9.4 35.6 0 0 1.5 10.7 15.2 18.1 0 0 7.9 2.6 8.5 9.5l27.9 186.1s5.7 42.5 4.3 50.9c0 0 .8 7.5-7.3 9.8 0 0-6.1 1.4-12.8-15.5l-69.1-157.9s-4.3-10.8 0-15.7c0 0 16.3-26.1-8.6-41.3 0 0-17.9-12.2-36.2 3.7 0 0-20.2 18.3 0 41.3 0 0 4.7 6.3 16.1 9.2 0 0 6.7.2 7.7 7.5l58.6 170.2 32.6 95.5s3.2 11.6 5.1 13.2c0 0 5.3 5.7 23.2 11.4 0 0 41.9 20.8 94.9 14.4 0 0 35.2-3.3 67.4-18.7l5.1-2.9s2.6-1 4.7-9.4l33-98.1 35.8-100.3 21-61.5 4.3-10.6s2.4-6.5 9.6-8.1c0 0 22.2-4.1 22-31.3.2-0-1.6-33.2-37.2-28.7zm-160 335.8s-55.4 9.2-87.3-11.2c0 0-15.1-7.9-10.2-27.7 0 0 3.6-9.3 17.3-14.2 0 0 22.4-13 78-7.7 0 0 44.6 5.1 44.8 28.5.1.1 7.9 24.6-42.6 32.3z" fill="url(#a)" stroke="url(#b)" stroke-miterlimit="10"/><path d="m417.23 117.913s-20.2 1.8-24 26.7c0 0 0 13 5.9 21.6l2.2 3.1s1 1.4-.6 5.1l-73.7 171.2-2.4 4.1s-2.6 4.1-9.6 1.4c0 0-6.1-2.4-4.7-13.4l20.2-146.6 13-87.7s.7-3.4 3.4-4.2c.7-.2 3-1.6 3.7-2 4.3-2.6 15.4-10.8 15.9-26.7 0 0 3-16.9-11.6-27.5-10.4-7.6-24.4-8.5-35.4-1.9-6.4 3.8-12.3 10.4-13.7 22 0 0-3.1 13.2 4.5 24.4 0 0 5.3 6.3 6.7 7.3 0 0 1.6 1.4 1.2 3.1l-44.2 207.6s-3.1 12.6-13.4 12.8c0 0-7.1 1.4-8.5-10.6l-6.1-129.9-5.5-112.1s.6-5.5 4.7-7.9c0 0 15.5-11.8 10.8-30.7 0 0-3.8-28.3-37-22.4 0 0-24.7 6.2-17.6 39.6 0 0 3.4 6.8 11.3 13.6 0 0 4.8 3.8 4.8 11.1l-8.5 236.3s.8 13.8-12.2 14.7c0 0-7.7.8-12.4-23.2l-45.5-193.6s-2.5-11.2 3-16.1c0 0 17.6-22.9-2.4-44.4 0 0-16.7-16.3-38.7-1.2 0 0-15.7 9.8-9.4 35.6 0 0 1.5 10.7 15.2 18.1 0 0 7.9 2.6 8.5 9.5l27.9 186.1s5.7 42.5 4.3 50.9c0 0 .8 7.5-7.3 9.8 0 0-6.1 1.4-12.8-15.5l-69.1-157.9s-4.3-10.8 0-15.7c0 0 16.3-26.1-8.6-41.3 0 0-17.9-12.2-36.2 3.7 0 0-20.2 18.3 0 41.3 0 0 4.7 6.3 16.1 9.2 0 0 6.7.2 7.7 7.5l58.6 170.2 32.6 95.5s3.2 11.6 5.1 13.2c0 0 5.3 5.7 23.2 11.4 0 0 41.9 20.8 94.9 14.4 0 0 35.2-3.3 67.4-18.7l5.1-2.9s2.6-1 4.7-9.4l33-98.1 35.8-100.3 21-61.5 4.3-10.6s2.4-6.5 9.6-8.1c0 0 22.2-4.1 22-31.3.2 0-1.6-33.2-37.2-28.7zm-160 335.8s-55.4 9.2-87.3-11.2c0 0-15.1-7.9-10.2-27.7 0 0 3.6-9.3 17.3-14.2 0 0 22.4-13 78-7.7 0 0 44.6 5.1 44.8 28.5.1.1 7.9 24.6-42.6 32.3z" fill="url(#c)" stroke="url(#d)" stroke-miterlimit="10"/><path d="m416.4 119.7s-20.2 1.8-24 26.7c0 0 0 13 5.9 21.6l2.2 3.1s1 1.4-.6 5.1l-73.7 171.2-2.4 4.1s-2.6 4.1-9.6 1.4c0 0-6.1-2.4-4.7-13.4l20.2-146.6 13-87.7s.7-3.4 3.4-4.2c.7-.2 1.4-.5 2.1-1 4.3-2.6 16.9-11.8 17.5-27.7 0 0 3-16.9-11.6-27.5-10.4-7.6-24.4-8.5-35.4-1.9-6.4 3.8-12.3 10.4-13.7 22 0 0-3.1 13.2 4.5 24.4 0 0 5.3 6.3 6.7 7.3 0 0 1.6 1.4 1.2 3.1l-44.2 207.6s-3.1 12.6-13.4 12.8c0 0-7.1 1.4-8.5-10.6l-6.1-129.9-5.5-112.1s.6-5.5 4.7-7.9c0 0 15.5-11.8 10.8-30.7 0 0-4.7-29.3-37.9-23.4 0 0-24.6 7.3-17.5 40.7 0 0 2.4 9.4 11.4 14.9 0 0 5.5 2.4 5.5 9.6l-8.5 236.3s.8 13.8-12.2 14.7c0 0-7.7.8-12.4-23.2l-45.5-193.5s-2.5-11.2 3-16.1c0 0 17.6-22.9-2.4-44.4 0 0-16.7-16.3-38.7-1.2 0 0-15.7 9.8-9.4 35.6 0 0 1.5 10.7 15.2 18.1 0 0 7.9 2.6 8.5 9.5l27.9 186.1s5.7 42.5 4.3 50.9c0 0 .8 7.5-7.3 9.8 0 0-6.1 1.4-12.8-15.5l-69.1-157.9s-4.3-10.8 0-15.7c0 0 16.3-26.1-8.6-41.3 0 0-17.9-12.2-36.2 3.7 0 0-20.2 18.3 0 41.3 0 0 4.7 6.3 16.1 9.2 0 0 6.7.2 7.7 7.5l58.6 170.2 32.6 95.5s3.2 11.6 5.1 13.2c0 0 5.3 5.7 23.2 11.4 0 0 41.9 20.8 94.9 14.4 0 0 35.2-3.3 67.4-18.7l5.1-2.9s2.6-1 4.7-9.4l33-98.1 35.8-100.3 21-61.5 4.3-10.6s2.4-6.5 9.6-8.1c0 0 22.2-4.1 22-31.3.2-0-1.6-33.2-37.2-28.7zm-160 335.8s-55.4 9.2-87.3-11.2c0 0-15.1-7.9-10.2-27.7 0 0 3.6-9.3 17.3-14.2 0 0 22.4-13 78-7.7 0 0 44.6 5.1 44.8 28.5.1.1 7.9 24.6-42.6 32.3z" fill="url(#e)" stroke="url(#f)" stroke-miterlimit="10"/><path d="m416.4 119.7s-20.2 1.8-24 26.7c0 0 0 13 5.9 21.6l2.2 3.1s1 1.4-.6 5.1l-73.7 171.2-2.4 4.1s-2.6 4.1-9.6 1.4c0 0-6.1-2.4-4.7-13.4l20.2-146.6 13-87.7s.7-3.4 3.4-4.2c.7-.2 1.4-.5 2.1-1 4.3-2.6 16.9-11.8 17.5-27.7 0 0 3-16.9-11.6-27.5-10.4-7.6-24.4-8.5-35.4-1.9-6.4 3.8-12.3 10.4-13.7 22 0 0-3.1 13.2 4.5 24.4 0 0 5.3 6.3 6.7 7.3 0 0 1.6 1.4 1.2 3.1l-44.2 207.6s-3.1 12.6-13.4 12.8c0 0-7.1 1.4-8.5-10.6l-6.1-129.9-5.5-112.1s.6-5.5 4.7-7.9c0 0 15.5-11.8 10.8-30.7 0 0-4.7-29.3-37.9-23.4 0 0-24.6 7.3-17.5 40.7 0 0 2.4 9.4 11.4 14.9 0 0 5.5 2.4 5.5 9.6l-8.5 236.3s.8 13.8-12.2 14.7c0 0-7.7.8-12.4-23.2l-45.5-193.5s-2.5-11.2 3-16.1c0 0 17.6-22.9-2.4-44.4 0 0-16.7-16.3-38.7-1.2 0 0-15.7 9.8-9.4 35.6 0 0 1.5 10.7 15.2 18.1 0 0 7.9 2.6 8.5 9.5l27.9 186.1s5.7 42.5 4.3 50.9c0 0 .8 7.5-7.3 9.8 0 0-6.1 1.4-12.8-15.5l-69.1-157.9s-4.3-10.8 0-15.7c0 0 16.3-26.1-8.6-41.3 0 0-17.9-12.2-36.2 3.7 0 0-20.2 18.3 0 41.3 0 0 4.7 6.3 16.1 9.2 0 0 6.7.2 7.7 7.5l58.6 170.2 32.6 95.5s3.2 11.6 5.1 13.2c0 0 5.3 5.7 23.2 11.4 0 0 41.9 20.8 94.9 14.4 0 0 35.2-3.3 67.4-18.7l5.1-2.9s2.6-1 4.7-9.4l33-98.1 35.8-100.3 21-61.5 4.3-10.6s2.4-6.5 9.6-8.1c0 0 22.2-4.1 22-31.3.2-0-1.6-33.2-37.2-28.7zm-160 335.8s-55.4 9.2-87.3-11.2c0 0-15.1-7.9-10.2-27.7 0 0 3.6-9.3 17.3-14.2 0 0 23.474-14.622 79.202-8.184 0 0 43.398 5.584 43.598 28.984.1.1 7.9 24.6-42.6 32.3z" fill="url(#g)" stroke="url(#f)" stroke-miterlimit="10"/><circle cx="30.8" cy="146.5" fill="url(#h)" r="26.8"/><path d="m99.1 90.2c-12.6-12.1-12.5-33.3-1.1-44.4 11.2-10.9 29.8-10.2 41.9 1.9s14.7 26.9 1.9 41.9c-10.2 11.8-30.4 12.4-42.7.6z" fill="url(#i)"/><path d="m199.2 34.7c0-16.5 12.9-29.7 28.1-29.7s28.1 13.5 28.1 30-7.9 30.7-28.1 30.7c-15.2-.1-28.1-13.3-28.1-31z" fill="url(#j)"/><path d="m304.8 65.1c3-17.3 18.9-29 35.6-26.1 16.6 2.9 27.7 19.2 24.7 36.5s-17.2 29.3-35.6 26.1c-16.6-3-27.9-17.8-24.7-36.5z" fill="url(#k)"/><path d="m393.3 144.5c.4-16.7 18.5-27.4 34.9-24.6s27.4 18.5 24.6 34.9-14.5 28.1-34.9 24.6c-16.4-2.7-25-14-24.6-34.9z" fill="url(#l)"/><g fill="#140a06"><path d="m133.6 354.8s-11.4-21.5-17.5-37l-27.3-61.5-24.8-58.5s-10-21.4-12.1-28.9c0 0-1.3-4.9 2.5-12.1 0 0 9.1-12.4 3.1-20.9 0 0 1.6 6.2-2.8 12.8 0 0-7.2 11.2-7.5 15.5 0 0-.4 7.1 5.3 15.8 0 0 7.1 12.2 8.6 16.2 0 0 57.9 133.4 58.2 134.2.3.7 9.1 21.3 14.3 24.4z"/><path d="m139.5 147.1s25.8 101.3 27.4 105.3c0 0 13.5 53.5 16.1 59.3 0 0 4.4 5.4 8.8 8 0 0-4.9-6.1-7-15.6l-16.1-68.9-21.8-86.5s-10.8-41.4-11.1-50.2c0 0-.7-4.5 2.8-10l4.6-5.9c.5-.6.9-1.2 1.2-1.9 1-1.8 3-5.5 3.7-8.5 0 0 2-14.1-6.3-14.1 0 0-.3 7.7-4.6 14.3 0 0-6.2 9.6-8.9 15.3-.9 2-1.3 4.1-1.2 6.3.2 2.8 1.5 5.8 2.4 10.8.1 0 7.9 28.9 10 42.3z"/><path d="m229.5 78.8 3.3 79.2 4.5 92.6 5.7 57.4c1.2 12.4 8.3 10.9 8.3 10.9-6.6-2.8-6-22.7-6-22.7l-5.9-109.7-6-120c0-1 0-1.9.2-2.9 1.1-6.1 3.3-8.4 3.3-8.4 6-10.6 10.9-11.1 12.5-10.9 1.1.1 4.8.7 5.4-.3 1.1-1.7 1.5-8.2 1.5-8.2-1.4-6.3-5.9-7.8-5.9-7.8.4 1.4-5.9 8.5-5.9 8.5l-12 13.8c-3.3 4.3-3.1 10-3.1 10z"/><path d="m239.3 66c-.4.6-.6 1.2-.8 1.9-.3 1.6-.9 4.9-.6 7.5l5.5 119.9 6.3 118.3s.7 4.5 6.7 6.2c0 0-5.9-2.6-5.3-16l-5.2-116.2-5.7-111.6s-1.1-7.4 1.3-13.3z"/><path d="m314.2 353.1s-4.9-2.9-4.9-10.5l6.1-84.9 12.8-95.5 7.1-59.8s-.7-5.2 3.9-9.4c.6-.6 3.7-4.5 4.2-5.1 1.7-2.3 4.9-3.5 9.7-7.6l6.9-4.6c1.5-.7 3.9 2.8 3.9 1.2.1-3.1-1.1-7.3-3.3-10.2l-3.6-5.7s-11.1 8.2-14.2 10.6c0 0-12.4 12-15.3 22.9 0 0-2 12.2-2.7 20.2l-13.5 102.1s-15.9 106.7-12.3 127.4c0-0 3.2 16.7 15.2 8.9z"/><path d="m447 142.3s-4.9-7-11.4-9c-1-.3-2.1 0-2.8.6-1.7 1.4-4.7 3.9-6.8 5.6-.8.6-1.7 1.2-2.6 1.7-2.8 1.4-10.8 6.3-17.5 17.9-.4.6-.6 1.3-.7 2.1-.2 2.2-.7 7.1-.8 9.7 0 .7 0 1.3.2 2 .3 1.2.6 4.1-1.3 7.6l-44.4 104.8-26.9 65s-7.3 17.8-21.3 30c0 0-5.6 4.7-20.9 1.8 0 0-60.4-9.5-92.6-4.9 0 0-34.6 2.4-44.2 26.6 0 0-6.4 13.1-1.6 32.2 0 0 3.3 16.4 2.4 22.4 0 0 3.3 7.3 9.1 10.4l2.2 1.8s-15.3-.7-33.5-14.4c0 0 6.4 9.8 22 14.2 0 0 24 9.3 37.7 11.5 0 0-26.9-12-31.8-20.9 0 0 0-2.2 2.9-1.6 0 0 9.5 4.5 45.5 5 0 0 34.9.6 59.6-6.9 0 0 34.8-7.8 40.4-34 0 0 9.8-36.6 19.3-52 0 0 24.2-52.2 32.9-74.8l34.9-87.4s10.2-27 11.1-29c0 0 2.9-11.5 7.5-17.8 0 0 6.3-8.8 10.5-12.4 1.1-.9 2.3-1.6 3.7-1.8 1.6-.3 4.2-.6 6.4.5 0 0 11.5 4.7 15.8 4.2.1.1 2.6-2.3-3-10.7zm-145.6 283.2s.5 14.7-20.3 23.3c0 0-20.9 14.3-77.3 8.7 0 0-41.7.2-47.6-21.5 0 0-4.054-13.133 5.25-28.42 0 0 12.113-15.76 54.313-17.56 0 0 52.294-2.525 77.395 15.775 0-.001 10.058 7.397 8.242 19.705z"/><path d="m291.2 404.1c-9.1-7.1-18.124-11.522-18.124-11.522-30.9-6-60.837-4.316-60.837-4.316-44.9 3.1-53.239 22.638-53.239 22.638l.774-5.51c-3.402 1.686-2.416 13.034-1.263 14.712 1.426-3.967.705-5.328 4.329-8.875 6.625-6.484 11.734-7.626 14.795-8.919 6.878-2.905 14.116-4.767 20.569-5.961 11.525-2.132 20.547-2.132 20.547-2.132 20.134-.483 31.591.574 37.116 1.302 2.827.372 12.068 2.64 13.256 2.977 36.093 10.233 29.907 28.93 29.907 28.93 3.721-17.952-7.83-23.324-7.83-23.324z"/></g><path d="m8.8 163.6s4.4 7.7 13.8 11.4c0 0 3.7 1.5 7.3 2.4 0 0 4.1.5 6 3.6l16.5 46.4 23.5 67.9 46 133.6 8.4 24.1 2.1 6.6s1.1 3.5 3.6 4.6c0 0 16.1 10.7 41.7 17.3 0 0 18.6 7.4 50.6 8.6 0 0 36.1 1.1 60.2-9 0 0 17.7-6.7 25.6-11.1 0 0-6.3 6-34.2 15.5 0 0-31 9.4-67.3 5.9 0 0-41.1-4.8-77.7-24.7 0 0-2.9-.5-5.8-10.1l-15.1-44.7-14.3-42.7-23.7-68.7-20.9-61.3-19.1-55s-1.4-4.6-5.5-4.9c-.4 0-.7-.1-1.1-.1-3-.8-17.2-4.8-20.6-15.6z" fill="#7b4f36"/><path d="m190.4 479.8s59.3 13.6 114.1-11.1l9.5-4.2s-18.1 16.4-72.6 21.2c-.1 0-31.2 1.4-51-5.9z" fill="#684c34"/><path d="m150.9 420.9s2.1-18.3 10.1-25.7c0 0 7.3-10.7 43.3-14.9 0 0 40.7-5.1 78.3 8.6 0 0 11.9 4.5 16.9 14.8 0 0-7.8-17.6-57.2-21 0 0-27.4-2.1-52.4 3-3.5.7-6.9 1.5-10.4 2.2-5.586 2.002-24.1 5.6-28.6 33z" fill="#79593a"/></svg>